<?xml version="1.0" encoding="utf-8"?>
<!-- Generator: Adobe Illustrator 24.0.3, SVG Export Plug-In . SVG Version: 6.00 Build 0)  -->
<svg version="1.1" id="Layer_1" xmlns="http://www.w3.org/2000/svg" xmlns:xlink="http://www.w3.org/1999/xlink" x="0px" y="0px"
	 viewBox="0 0 300 300" style="enable-background:new 0 0 300 300;" xml:space="preserve">
<style type="text/css">
	.st0{fill:#FFFFFF;}
	.st1{fill:#D7E085;}
	.st2{fill:#B07F48;}
	.st3{fill:#92C01F;}
	.st4{opacity:0.7;fill:#6BAD35;}
	.st5{fill:#24130D;}
	.st6{fill:#6BAD35;}
</style>
<g>
<!--	<g>-->
<!--		<path class="st0" d="M18.01,298C9.18,298,2,290.82,2,281.99V18.01C2,9.18,9.18,2,18.01,2h263.97C290.82,2,298,9.18,298,18.01-->
<!--			v263.97c0,8.83-7.18,16.01-16.01,16.01H18.01z"/>-->
<!--		<path class="st1" d="M281.99,4C289.71,4,296,10.29,296,18.01v263.97c0,7.73-6.29,14.01-14.01,14.01H18.01-->
<!--			C10.29,296,4,289.71,4,281.99V18.01C4,10.29,10.29,4,18.01,4H281.99 M281.99,0H18.01C8.11,0,0,8.11,0,18.01v263.97-->
<!--			C0,291.89,8.11,300,18.01,300h263.97c9.91,0,18.01-8.11,18.01-18.01V18.01C300,8.11,291.89,0,281.99,0L281.99,0z"/>-->
<!--	</g>-->
	<g>
		<g>
			<path class="st2" d="M249.09,122.06c6.11,12.87,9.51,27.07,9.51,42c0,58.31-51.66,105.59-115.39,105.59
				S27.83,222.38,27.83,164.06S79.49,58.48,143.21,58.48c3.96,0,7.88,0.18,11.74,0.54l0.45-4.9c-4.02-0.37-8.12-0.56-12.19-0.56
				c-66.34,0-120.31,49.57-120.31,110.51c0,60.94,53.97,110.51,120.31,110.51S263.52,225,263.52,164.06
				c0-15.3-3.36-30.14-9.99-44.11L249.09,122.06z"/>
			<path class="st3" d="M141.59,167.67l13.36-108.65c-3.86-0.36-7.77-0.54-11.74-0.54c-63.73,0-115.39,47.27-115.39,105.59
				s51.66,105.59,115.39,105.59S258.6,222.38,258.6,164.06c0-14.93-3.41-29.13-9.51-42L141.59,167.67z"/>
			<g>
				<path class="st4" d="M132.98,103.98c0-13.01,2.29-23.56,5.12-23.56c2.83,0,5.12,10.55,5.12,23.56s-5.12,23.56-5.12,23.56
					S132.98,116.99,132.98,103.98z"/>
				<path class="st4" d="M117.92,117.11c-4.22-12.31-5.48-23.03-2.81-23.95c2.67-0.92,8.27,8.31,12.49,20.62s2.81,23.95,2.81,23.95
					S122.14,129.41,117.92,117.11z"/>
				<path class="st4" d="M100.78,125.62c-7.99-10.27-12.66-20-10.43-21.74c2.23-1.74,10.52,5.18,18.51,15.45
					s10.43,21.74,10.43,21.74S108.77,135.89,100.78,125.62z"/>
				<path class="st4" d="M91.4,140.21c-10.89-7.12-18.47-14.8-16.92-17.17c1.55-2.37,11.63,1.48,22.52,8.6s16.92,17.17,16.92,17.17
					S102.3,147.33,91.4,140.21z"/>
				<path class="st4" d="M89.57,159.07c-12.76-2.56-22.65-6.89-22.09-9.66s11.35-2.94,24.11-0.38c12.76,2.56,22.09,9.66,22.09,9.66
					S102.33,161.63,89.57,159.07z"/>
				<path class="st4" d="M82.01,177.73c-12.9,1.74-23.66,0.87-24.03-1.93c-0.38-2.8,9.77-6.48,22.67-8.22s24.03,1.93,24.03,1.93
					S94.91,175.99,82.01,177.73z"/>
				<path class="st4" d="M96.68,194.35c-11.09,6.81-21.28,10.37-22.76,7.96c-1.48-2.41,6.31-9.88,17.4-16.69
					c11.09-6.81,22.76-7.96,22.76-7.96S107.77,187.54,96.68,194.35z"/>
				<path class="st4" d="M108.18,210.39c-9.57,8.81-18.89,14.27-20.8,12.19s4.29-10.91,13.87-19.72c9.57-8.81,20.8-12.19,20.8-12.19
					S117.75,201.57,108.18,210.39z"/>
				<path class="st4" d="M125.62,219.4c-6.19,11.44-13.23,19.63-15.72,18.28c-2.49-1.35,0.52-11.71,6.71-23.16
					c6.19-11.44,15.72-18.28,15.72-18.28S131.82,207.96,125.62,219.4z"/>
				<path class="st4" d="M146.73,217.24c-0.52,13-3.24,23.45-6.06,23.34c-2.82-0.11-4.69-10.75-4.17-23.75
					c0.52-13,6.06-23.34,6.06-23.34S147.25,204.24,146.73,217.24z"/>
				<path class="st4" d="M162.94,216.19c2.14,12.83,1.62,23.62-1.17,24.08c-2.79,0.47-6.79-9.56-8.93-22.4
					c-2.14-12.83,1.17-24.08,1.17-24.08S160.8,203.35,162.94,216.19z"/>
				<path class="st4" d="M181.45,207.65c6.19,11.44,9.2,21.81,6.71,23.16s-9.52-6.84-15.72-18.28s-6.71-23.16-6.71-23.16
					S175.25,196.21,181.45,207.65z"/>
				<path class="st4" d="M194.38,194.21c9.78,8.58,16.2,17.26,14.34,19.38c-1.86,2.13-11.31-3.11-21.09-11.68
					c-9.78-8.58-14.34-19.38-14.34-19.38S184.59,185.63,194.38,194.21z"/>
				<path class="st4" d="M203.57,175.3c10.26,4.5,17.61,10.35,16.42,13.06c-1.19,2.71-10.47,1.27-20.73-3.23
					s-16.42-13.06-16.42-13.06S193.31,170.8,203.57,175.3z"/>
				<path class="st4" d="M203.26,156.56c12.97,1.07,23.29,4.23,23.06,7.05c-0.23,2.82-10.93,4.23-23.9,3.16
					c-12.97-1.07-23.06-7.05-23.06-7.05S190.29,155.49,203.26,156.56z"/>
				<path class="st4" d="M218.38,135.09l-33.24,14.1c4.28,0.1,9.75-0.2,15.45-1.65c12.61-3.19,22.28-8.01,21.58-10.75
					C221.94,135.88,220.56,135.32,218.38,135.09z"/>
			</g>
			<path class="st1" d="M177.37,161.31c2.72-0.95,4.08-1.43,6.79-2.39c-3.01-0.23-4.51-0.34-7.52-0.57
				c2.54-1.17,3.82-1.76,6.36-2.93c-3.02,0.02-4.54,0.03-7.56,0.06c2.34-1.38,3.51-2.07,5.84-3.44c-1.43,0.13-2.52,0.23-3.6,0.33
				l-36.1,15.31l4.75-38.64c-0.95,1.59-1.46,2.78-2.33,4.99c-1.22-2.48-1.8-3.94-2.73-6.11c-0.93,2.05-1.27,3.46-1.95,6.48
				c-1.52-2.71-2.27-4.26-3.58-6.39c-0.53,2.31-0.75,3.93-1.06,7.24c-1.66-2.91-2.5-4.26-4.03-6.27c-0.1,2.49-0.04,4.58-0.01,7.48
				c-1.93-2.23-2.93-3.79-4.8-5.79c0.3,2.65,0.54,4.54,0.94,7.36c-2.19-1.98-3.2-3.12-5.58-5.31c0.77,2.86,1.2,4.47,1.94,7.21
				c-2.43-1.8-3.81-2.78-6.49-4.69c1.27,2.92,1.89,4.13,3.04,6.79c-2.72-1.56-4.13-2.23-7-3.76c1.65,2.52,2.47,3.83,3.95,6.31
				c-2.84-1.21-4.69-2.02-7.2-3.17c1.7,2.32,2.84,3.5,4.52,6c-2.89-1.02-4.29-1.69-6.75-2.1c1.77,1.74,2.46,3.05,4.27,4.83
				c-2.95-0.53-3.84-0.66-6.3-0.75c1.76,1.18,2.61,1.9,4.37,3.47c-2.51-0.22-3.83-0.19-6.16-0.28c1.87,1.12,2.92,1.74,4.88,3.11
				c-2.44-0.01-3.44-0.03-5.96-0.04c2.25,1.02,3.11,1.6,5.17,2.88c-2.35,0.07-3.07,0-5.74,0.16c2.54,0.87,3.23,1.42,5.29,2.68
				c-2.23,0.1-2.82,0.01-5.58,0.41c2.7,0.66,3.28,1.24,5.38,2.49c-2.11,0.22-2.62,0.35-5.23,1.19c2.86,0.59,3.4,1.18,5.54,2.01
				c-1.87,0.75-2.23,1.16-4.38,2.26c2.62,0.3,3.02,0.54,5.09,0.89c-1.66,1.13-2.01,1.84-3.54,3.22c2.07-0.04,2.51-0.21,4.5-0.25
				c-1.47,1.42-2.03,2.42-2.96,4.11c1.4-0.48,2.17-1.02,4.09-1.33c-1.31,1.59-1.72,2.5-2.82,4.68c1.53-1.27,1.43-1.45,4.38-2.1
				c-1.85,1.81-1.91,2.28-2.89,3.63c1.57-0.76,2.56-0.93,5.38-1.6c-1.56,1.47-2.61,2.09-3.24,3.43c1.5-0.72,3.37-1.06,5.96-1.65
				c-1.25,1.48-1.68,2.17-2.39,3.48c1.91-0.61,2.88-0.67,5.25-1.59c-0.97,1.72-1.24,2.63-2,3.96c1.76-0.45,2.47-1.15,5.13-2.41
				c-0.86,1.98-1.22,2.75-2.03,4.74c1.9-1.38,3.59-1.83,5.94-3.27c-0.4,2.07-0.73,2.93-1.18,5.05c2.27-1.56,3.4-2.4,5.43-3.92
				c0.07,2.01,0.01,3.14,0.13,5.29c1.77-1.73,2.72-2.48,4.34-4.34c0.54,2.15,0.71,3.22,1.17,5.43c1.09-1.85,1.62-2.66,2.63-4.23
				c0.72,2.39,1.08,3.61,1.78,6.04c0.71-1.74,1.06-2.6,1.78-4.38c1.01,2.43,1.54,3.62,2.63,5.77c0.46-2.08,0.63-3.14,1.17-5.28
				c1.61,1.88,2.28,2.86,3.72,4.73c0.2-2.13,0.39-3.12,0.8-5.05c1.76,1.82,2.47,2.58,4.1,4.16c0.01-1.91,0.16-2.65,0.48-4.45
				c1.9,1.63,2.54,2.1,4.62,3.35c-0.19-1.67,0.03-2.27,0.15-3.89c2.28,1.19,2.86,1.07,5.04,1.63c-0.62-1.63-0.64-2.3-0.92-3.63
				c1.94-0.09,2.71-0.48,5.2,0.03c-1.17-1.76-1.52-2.44-2.29-3.59c1.92-0.73,3.28-0.96,5.98,0.16c-1.63-2.16-2.56-3.11-3.84-4.27
				c2.24-0.85,4.01,0.24,6.84,0.94c-1.9-1.83-2.93-3.28-4.69-4.63c2.83-0.11,4.39,0.7,7.32,1.22c-2.1-1.56-3.15-2.34-5.25-3.91
				c3,0.27,4.5,0.41,7.5,0.68c-2.34-1.38-3.51-2.07-5.84-3.44c3.02,0.02,4.54,0.03,7.56,0.06c-2.54-1.17-3.82-1.76-6.36-2.93
				c3.01-0.23,4.51-0.34,7.52-0.57c-2.72-0.95-4.08-1.43-6.79-2.39c2.95-0.48,4.43-0.72,7.38-1.2c-2.85-0.72-4.28-1.08-7.13-1.8
				c2.85-0.72,4.28-1.08,7.13-1.8C181.8,162.03,180.33,161.79,177.37,161.31z"/>
			<g>

					<ellipse transform="matrix(0.9861 -0.1662 0.1662 0.9861 -17.2617 24.5574)" class="st5" cx="138.1" cy="115.41" rx="2.75" ry="5.81"/>

					<ellipse transform="matrix(0.8028 -0.5962 0.5962 0.8028 -49.1525 101.5891)" class="st5" cx="129.02" cy="125.11" rx="1.8" ry="3.81"/>

					<ellipse transform="matrix(0.0431 -0.9991 0.9991 0.0431 -54.9827 243.6091)" class="st5" cx="99.68" cy="150.51" rx="1.8" ry="3.81"/>

					<ellipse transform="matrix(0.9117 -0.4109 0.4109 0.9117 -59.5912 54.4629)" class="st5" cx="96.89" cy="165.85" rx="3.81" ry="1.8"/>

					<ellipse transform="matrix(0.1095 -0.994 0.994 0.1095 -78.6245 234.7307)" class="st5" cx="91.69" cy="161.25" rx="1.8" ry="3.81"/>

					<ellipse transform="matrix(0.7495 -0.662 0.662 0.7495 -54.126 104.8606)" class="st5" cx="111.5" cy="123.95" rx="2.75" ry="5.81"/>

					<ellipse transform="matrix(0.356 -0.9345 0.9345 0.356 -69.5891 177.6563)" class="st5" cx="94.1" cy="139.32" rx="2.75" ry="5.81"/>

					<ellipse transform="matrix(0.934 -0.3572 0.3572 0.934 -56.9616 44.5568)" class="st5" cx="92.14" cy="176.48" rx="5.81" ry="2.75"/>

					<ellipse transform="matrix(0.8238 -0.5668 0.5668 0.8238 -88.7975 88.7786)" class="st5" cx="98.43" cy="187.25" rx="5.31" ry="2.14"/>

					<ellipse transform="matrix(0.4661 -0.8847 0.8847 0.4661 -115.7382 213.1161)" class="st5" cx="118.7" cy="202.45" rx="5.81" ry="2.75"/>

					<ellipse transform="matrix(1.518866e-03 -1 1 1.518866e-03 -67.4775 359.9149)" class="st5" cx="146.49" cy="213.75" rx="5.81" ry="2.75"/>

					<ellipse transform="matrix(0.8862 -0.4634 0.4634 0.8862 -75.1822 98.8733)" class="st5" cx="163.64" cy="202.45" rx="2.75" ry="5.81"/>

					<ellipse transform="matrix(0.5693 -0.8221 0.8221 0.5693 -83.2028 234.9352)" class="st5" cx="182.63" cy="196.88" rx="2.75" ry="5.81"/>

					<ellipse transform="matrix(0.122 -0.9925 0.9925 0.122 -3.0755 336.0521)" class="st5" cx="188.41" cy="169.76" rx="1.92" ry="3.61"/>

					<ellipse transform="matrix(0.9995 -0.0307 0.0307 0.9995 -4.5365 6.0135)" class="st5" cx="193.25" cy="150.51" rx="5.81" ry="2.75"/>

					<ellipse transform="matrix(0.7132 -0.701 0.701 0.7132 -109.7642 129.1482)" class="st5" cx="102.94" cy="198.71" rx="3.81" ry="1.8"/>

					<ellipse transform="matrix(0.3761 -0.9266 0.9266 0.3761 -103.7371 254.2372)" class="st5" cx="136.92" cy="204.15" rx="3.81" ry="1.8"/>

					<ellipse transform="matrix(0.3301 -0.944 0.944 0.3301 -44.4601 298.993)" class="st5" cx="188.41" cy="180.82" rx="1.92" ry="3.61"/>

					<ellipse transform="matrix(0.9659 -0.2588 0.2588 0.9659 -35.254 55.5184)" class="st5" cx="193.25" cy="161.67" rx="3.61" ry="1.92"/>
			</g>
		</g>
		<g>
			<path class="st3" d="M179.75,31.61l-8.55,69.52c0.48-1.06,0.97-1.97,1.72-3.15c0.56,2.12,1.07,3.5,1.93,5.84
				c1.1-2.09,1.7-3.43,3.08-5.64c0.22,2.28,0.42,3.93,0.84,6.51c1.37-1.91,2.16-3.35,3.85-5.81c-0.17,2.81-0.21,4.76-0.27,7.62
				c0.77-0.83,1.37-1.75,2-2.66c-0.02,0.01-0.06,0.03-0.06,0.03s2.44-11.47,10.43-21.74c7.99-10.27,16.28-17.18,18.51-15.45
				c2.23,1.74-2.44,11.47-10.43,21.74c-0.46,0.59-0.93,1.16-1.4,1.71c-0.07,0.56-0.22,1.17-0.48,1.79c-0.79,1.95-2.18,3.23-3.1,2.85
				c-0.18-0.07-0.33-0.22-0.44-0.41c-4.02,3.82-7.96,6.5-10.45,8.01c-0.44,2.1-0.75,3.83-1.16,6.27c2.11-1.99,3.63-2.37,5.46-2.57
				c-0.68,2.03-1.05,3.05-1.92,5.52c2.4-0.87,3.33-0.82,5.48-0.79c-0.89,1.29-1.32,2.1-2.42,4.03c2.52-0.53,3.77-0.2,6.47-1.09
				c-1.41,1.59-2.13,2.01-3.58,3.74c2.78-0.57,4.25-0.77,7.06-1.57c-1.77,1.58-2.69,2.21-4.52,3.94c2.94-0.52,4.4-0.78,7.34-1.3
				c-2.1,1.56-3.15,2.34-5.25,3.91c0.85-0.08,1.57-0.14,2.25-0.21l7.89-3.35c-4.51-0.19-7.43-0.79-7.43-0.79s2.95-2.47,7.82-5.19
				c-1.39,0.43-2.59,0.33-2.95-0.35c-0.46-0.88,0.68-2.39,2.54-3.36c1.87-0.98,3.75-1.05,4.21-0.17c0.35,0.67-0.23,1.71-1.35,2.59
				c3.22-1.61,7.05-3.19,11.3-4.26c7.73-1.96,14.76-2.85,19.21-2.62l28.82-12.23C256.11,59.18,221.16,35.11,179.75,31.61z
				 M188.87,76.78c-1.02,4.72-2.66,8.95-4.32,12.41c0,0.84-0.09,1.75-0.33,2.71c-0.77,3.09-2.57,5.31-4.04,4.98
				c-0.79,1.18-1.31,1.84-1.31,1.84s-2.77-11.39-0.01-24.11c2.76-12.72,7.23-22.54,9.99-21.94
				C191.62,53.27,191.63,64.06,188.87,76.78z M213.54,102.27c-9.62,6.28-20.21,7.09-20.21,7.09s4.99-9.38,14.61-15.66
				c9.62-6.28,18.66-9.46,20.21-7.09C229.7,88.97,223.16,95.98,213.54,102.27z"/>
			<path class="st2" d="M252.16,56.38c-5.03-4.53-10.49-8.65-16.33-12.31c-16.07-10.05-34.97-16.57-55.36-18.32l-0.72,5.87
				c41.41,3.5,76.36,27.57,92.47,60.88l5.44-2.31C271.54,77.45,262.84,66,252.16,56.38z"/>
			<path class="st6" d="M224.18,107.34c-4.26,1.08-8.08,2.65-11.3,4.26c-0.35,0.28-0.75,0.54-1.19,0.77
				c-0.43,0.22-0.85,0.39-1.27,0.52c-4.88,2.71-7.82,5.19-7.82,5.19s2.92,0.6,7.43,0.79l33.36-14.15
				C238.94,104.5,231.91,105.39,224.18,107.34z"/>
			<path class="st6" d="M207.94,93.7c-9.62,6.28-14.61,15.66-14.61,15.66s10.59-0.81,20.21-7.09c9.62-6.28,16.16-13.29,14.61-15.66
				C226.61,84.24,217.56,87.41,207.94,93.7z M202.79,103.51c-1.98,2.23-4.28,3.42-5.13,2.66c-0.85-0.76,0.06-3.18,2.04-5.41
				s4.28-3.42,5.13-2.66C205.68,98.86,204.77,101.28,202.79,103.51z"/>
			<path class="st6" d="M187.28,100.73c-0.13,0.59-0.24,1.12-0.36,1.65c2.49-1.51,6.44-4.2,10.45-8.01
				c-0.48-0.74-0.43-2.24,0.21-3.8c0.79-1.95,2.18-3.23,3.1-2.85c0.63,0.26,0.87,1.22,0.71,2.42c0.47-0.56,0.94-1.12,1.4-1.71
				c7.99-10.27,12.66-20,10.43-21.74c-2.23-1.74-10.52,5.18-18.51,15.45c-7.99,10.27-10.43,21.74-10.43,21.74s0.04-0.02,0.06-0.03
				C185.15,102.7,185.99,101.59,187.28,100.73z"/>
			<path class="st6" d="M188.86,52.67c-2.76-0.6-7.24,9.22-9.99,21.94c-2.76,12.72,0.01,24.11,0.01,24.11s0.51-0.66,1.31-1.84
				c-0.01,0-0.02,0-0.03,0c-1.47-0.37-2.04-3.19-1.27-6.3c0.77-3.11,2.59-5.34,4.06-4.98c1.02,0.25,1.59,1.7,1.6,3.59
				c1.66-3.46,3.3-7.69,4.32-12.41C191.63,64.06,191.62,53.27,188.86,52.67z"/>
			<path class="st1" d="M205.14,118.53c-2.94,0.52-4.4,0.78-7.34,1.3c1.83-1.73,2.75-2.35,4.52-3.94c-2.82,0.8-4.28,1-7.06,1.57
				c1.45-1.73,2.17-2.14,3.58-3.74c-2.7,0.9-3.94,0.56-6.47,1.09c1.1-1.93,1.53-2.74,2.42-4.03c-2.15-0.03-3.08-0.08-5.48,0.79
				c0.87-2.46,1.25-3.49,1.92-5.52c-1.83,0.2-3.35,0.58-5.46,2.57c0.41-2.44,0.72-4.17,1.16-6.27c0.11-0.53,0.22-1.06,0.36-1.65
				c-1.29,0.86-2.14,1.97-2.93,3.1c-0.63,0.91-1.24,1.83-2,2.66c0.06-2.86,0.1-4.81,0.27-7.62c-1.69,2.46-2.47,3.9-3.85,5.81
				c-0.42-2.57-0.63-4.22-0.84-6.51c-1.38,2.21-1.97,3.56-3.08,5.64c-0.86-2.34-1.36-3.72-1.93-5.84c-0.76,1.19-1.24,2.09-1.72,3.15
				l-4.44,36.11l35.38-15.01c-0.68,0.06-1.4,0.13-2.25,0.21C201.99,120.87,203.04,120.09,205.14,118.53z"/>
			<path class="st5" d="M199.7,100.76c-1.98,2.23-2.89,4.65-2.04,5.41c0.85,0.76,3.15-0.43,5.13-2.66c1.98-2.23,2.89-4.65,2.04-5.41
				C203.98,97.34,201.68,98.53,199.7,100.76z"/>
			<path class="st5" d="M182.96,85.6c-1.47-0.37-3.29,1.86-4.06,4.98c-0.77,3.11-0.21,5.93,1.27,6.3c0.01,0,0.02,0,0.03,0
				c1.47,0.33,3.27-1.88,4.04-4.98c0.24-0.96,0.33-1.87,0.33-2.71C184.55,87.3,183.98,85.85,182.96,85.6z"/>
			<path class="st5" d="M200.69,87.71c-0.92-0.37-2.31,0.9-3.1,2.85c-0.63,1.56-0.68,3.07-0.21,3.8c0.12,0.18,0.26,0.33,0.44,0.41
				c0.92,0.37,2.31-0.9,3.1-2.85c0.25-0.62,0.4-1.23,0.48-1.79C201.56,88.93,201.32,87.96,200.69,87.71z"/>
			<path class="st5" d="M212.88,111.61c1.12-0.89,1.7-1.92,1.35-2.59c-0.46-0.88-2.35-0.81-4.21,0.17c-1.87,0.98-3,2.48-2.54,3.36
				c0.36,0.68,1.56,0.78,2.95,0.35c0.41-0.13,0.84-0.3,1.27-0.52C212.13,112.15,212.53,111.88,212.88,111.61z"/>
		</g>
	</g>
</g>
</svg>
